<svg width="24" height="24" viewBox="0 0 24 24" fill="none" xmlns="http://www.w3.org/2000/svg">
<path d="M3.1001 18.0004V4.00001C3.1001 3.50295 3.50304 3.10001 4.0001 3.10001H10.9997C11.4968 3.10001 11.8997 3.50295 11.8997 4.00001C11.8997 4.49706 11.4968 4.90001 10.9997 4.90001H4.9001V18.0004C4.9002 18.2919 5.01629 18.5712 5.22236 18.7774C5.42865 18.9836 5.70875 19.0996 6.00049 19.0996H18.0005C18.2921 19.0995 18.5712 18.9835 18.7774 18.7774C18.9836 18.5712 19.0996 18.292 19.0997 18.0004V13C19.0997 12.5031 19.5028 12.1002 19.9997 12.1C20.4968 12.1 20.8997 12.503 20.8997 13V18.0004C20.8996 18.7694 20.595 19.5074 20.0513 20.0512C19.5075 20.5949 18.7695 20.8995 18.0005 20.8996H6.00049C5.23154 20.8996 4.49352 20.5948 3.94971 20.0512C3.40594 19.5074 3.1002 18.7694 3.1001 18.0004ZM20.8997 9.0004C20.8995 9.49727 20.4966 9.9004 19.9997 9.9004C19.503 9.90019 19.0999 9.49714 19.0997 9.0004V6.17266L9.63682 15.6367C9.28548 15.9881 8.71566 15.9878 8.36416 15.6367C8.01269 15.2853 8.01269 14.7155 8.36416 14.3641L17.8271 4.90001H15.0005C14.5034 4.90001 14.1005 4.49706 14.1005 4.00001C14.1005 3.50295 14.5034 3.10001 15.0005 3.10001H19.9997C20.4968 3.10001 20.8997 3.50295 20.8997 4.00001V9.0004Z" fill="white"/>
</svg>
